<svg xmlns="http://www.w3.org/2000/svg" style="display:none">
<symbol id="alert-triangle" viewBox="0 0 24 24" fill="none" stroke="currentColor" stroke-width="2" stroke-linecap="round" stroke-linejoin="round"> <path d="M12 9v4" /> <path d="M10.363 3.591l-8.106 13.534a1.914 1.914 0 0 0 1.636 2.871h16.214a1.914 1.914 0 0 0 1.636 -2.87l-8.106 -13.536a1.914 1.914 0 0 0 -3.274 0" /> <path d="M12 16h.01" /></symbol>
<symbol id="align-left" viewBox="0 0 24 24" fill="none" stroke="currentColor" stroke-width="2" stroke-linecap="round" stroke-linejoin="round"> <path d="M4 6l16 0" /> <path d="M4 12l10 0" /> <path d="M4 18l14 0" /></symbol>
<symbol id="brand-windows" viewBox="0 0 24 24" fill="none" stroke="currentColor" stroke-width="2" stroke-linecap="round" stroke-linejoin="round"> <path d="M17.8 20l-12 -1.5c-1 -.1 -1.8 -.9 -1.8 -1.9v-9.2c0 -1 .8 -1.8 1.8 -1.9l12 -1.5c1.2 -.1 2.2 .8 2.2 1.9v12.1c0 1.2 -1.1 2.1 -2.2 1.9l0 .1" /> <path d="M12 5l0 14" /> <path d="M4 12l16 0" /></symbol>
<symbol id="briefcase" viewBox="0 0 24 24" fill="none" stroke="currentColor" stroke-width="2" stroke-linecap="round" stroke-linejoin="round"> <path d="M3 9a2 2 0 0 1 2 -2h14a2 2 0 0 1 2 2v9a2 2 0 0 1 -2 2h-14a2 2 0 0 1 -2 -2l0 -9" /> <path d="M8 7v-2a2 2 0 0 1 2 -2h4a2 2 0 0 1 2 2v2" /> <path d="M12 12l0 .01" /> <path d="M3 13a20 20 0 0 0 18 0" /></symbol>
<symbol id="building" viewBox="0 0 24 24" fill="none" stroke="currentColor" stroke-width="2" stroke-linecap="round" stroke-linejoin="round"> <path d="M3 21l18 0" /> <path d="M9 8l1 0" /> <path d="M9 12l1 0" /> <path d="M9 16l1 0" /> <path d="M14 8l1 0" /> <path d="M14 12l1 0" /> <path d="M14 16l1 0" /> <path d="M5 21v-16a2 2 0 0 1 2 -2h10a2 2 0 0 1 2 2v16" /></symbol>
<symbol id="calculator" viewBox="0 0 24 24" fill="none" stroke="currentColor" stroke-width="2" stroke-linecap="round" stroke-linejoin="round"> <path d="M4 5a2 2 0 0 1 2 -2h12a2 2 0 0 1 2 2v14a2 2 0 0 1 -2 2h-12a2 2 0 0 1 -2 -2l0 -14" /> <path d="M8 8a1 1 0 0 1 1 -1h6a1 1 0 0 1 1 1v1a1 1 0 0 1 -1 1h-6a1 1 0 0 1 -1 -1l0 -1" /> <path d="M8 14l0 .01" /> <path d="M12 14l0 .01" /> <path d="M16 14l0 .01" /> <path d="M8 17l0 .01" /> <path d="M12 17l0 .01" /> <path d="M16 17l0 .01" /></symbol>
<symbol id="calendar-event" viewBox="0 0 24 24" fill="none" stroke="currentColor" stroke-width="2" stroke-linecap="round" stroke-linejoin="round"> <path d="M4 7a2 2 0 0 1 2 -2h12a2 2 0 0 1 2 2v12a2 2 0 0 1 -2 2h-12a2 2 0 0 1 -2 -2l0 -12" /> <path d="M16 3l0 4" /> <path d="M8 3l0 4" /> <path d="M4 11l16 0" /> <path d="M8 15h2v2h-2l0 -2" /></symbol>
<symbol id="calendar-time" viewBox="0 0 24 24" fill="none" stroke="currentColor" stroke-width="2" stroke-linecap="round" stroke-linejoin="round"> <path d="M11.795 21h-6.795a2 2 0 0 1 -2 -2v-12a2 2 0 0 1 2 -2h12a2 2 0 0 1 2 2v4" /> <path d="M14 18a4 4 0 1 0 8 0a4 4 0 1 0 -8 0" /> <path d="M15 3v4" /> <path d="M7 3v4" /> <path d="M3 11h16" /> <path d="M18 16.496v1.504l1 1" /></symbol>
<symbol id="calendar-x" viewBox="0 0 24 24" fill="none" stroke="currentColor" stroke-width="2" stroke-linecap="round" stroke-linejoin="round"> <path d="M13 21h-7a2 2 0 0 1 -2 -2v-12a2 2 0 0 1 2 -2h12a2 2 0 0 1 2 2v6.5" /> <path d="M16 3v4" /> <path d="M8 3v4" /> <path d="M4 11h16" /> <path d="M22 22l-5 -5" /> <path d="M17 22l5 -5" /></symbol>
<symbol id="certificate" viewBox="0 0 24 24" fill="none" stroke="currentColor" stroke-width="2" stroke-linecap="round" stroke-linejoin="round"> <path d="M12 15a3 3 0 1 0 6 0a3 3 0 1 0 -6 0" /> <path d="M13 17.5v4.5l2 -1.5l2 1.5v-4.5" /> <path d="M10 19h-5a2 2 0 0 1 -2 -2v-10c0 -1.1 .9 -2 2 -2h14a2 2 0 0 1 2 2v10a2 2 0 0 1 -1 1.73" /> <path d="M6 9l12 0" /> <path d="M6 12l3 0" /> <path d="M6 15l2 0" /></symbol>
<symbol id="chart-bar" viewBox="0 0 24 24" fill="none" stroke="currentColor" stroke-width="2" stroke-linecap="round" stroke-linejoin="round"> <path d="M3 13a1 1 0 0 1 1 -1h4a1 1 0 0 1 1 1v6a1 1 0 0 1 -1 1h-4a1 1 0 0 1 -1 -1l0 -6" /> <path d="M15 9a1 1 0 0 1 1 -1h4a1 1 0 0 1 1 1v10a1 1 0 0 1 -1 1h-4a1 1 0 0 1 -1 -1l0 -10" /> <path d="M9 5a1 1 0 0 1 1 -1h4a1 1 0 0 1 1 1v14a1 1 0 0 1 -1 1h-4a1 1 0 0 1 -1 -1l0 -14" /> <path d="M4 20h14" /></symbol>
<symbol id="chart-line" viewBox="0 0 24 24" fill="none" stroke="currentColor" stroke-width="2" stroke-linecap="round" stroke-linejoin="round"> <path d="M4 19l16 0" /> <path d="M4 15l4 -6l4 2l4 -5l4 4" /></symbol>
<symbol id="chart-pie" viewBox="0 0 24 24" fill="none" stroke="currentColor" stroke-width="2" stroke-linecap="round" stroke-linejoin="round"> <path d="M10 3.2a9 9 0 1 0 10.8 10.8a1 1 0 0 0 -1 -1h-6.8a2 2 0 0 1 -2 -2v-7a.9 .9 0 0 0 -1 -.8" /> <path d="M15 3.5a9 9 0 0 1 5.5 5.5h-4.5a1 1 0 0 1 -1 -1v-4.5" /></symbol>
<symbol id="circle-check" viewBox="0 0 24 24" fill="none" stroke="currentColor" stroke-width="2" stroke-linecap="round" stroke-linejoin="round"> <path d="M3 12a9 9 0 1 0 18 0a9 9 0 1 0 -18 0" /> <path d="M9 12l2 2l4 -4" /></symbol>
<symbol id="clock" viewBox="0 0 24 24" fill="none" stroke="currentColor" stroke-width="2" stroke-linecap="round" stroke-linejoin="round"> <path d="M3 12a9 9 0 1 0 18 0a9 9 0 0 0 -18 0" /> <path d="M12 7v5l3 3" /></symbol>
<symbol id="cloud-off" viewBox="0 0 24 24" fill="none" stroke="currentColor" stroke-width="2" stroke-linecap="round" stroke-linejoin="round"> <path d="M9.58 5.548c.24 -.11 .492 -.207 .752 -.286c1.88 -.572 3.956 -.193 5.444 1c1.488 1.19 2.162 3.007 1.77 4.769h.99c1.913 0 3.464 1.56 3.464 3.486c0 .957 -.383 1.824 -1.003 2.454m-2.997 1.033h-11.343c-2.572 -.004 -4.657 -2.011 -4.657 -4.487c0 -2.475 2.085 -4.482 4.657 -4.482c.13 -.582 .37 -1.128 .7 -1.62" /> <path d="M3 3l18 18" /></symbol>
<symbol id="coins" viewBox="0 0 24 24" fill="none" stroke="currentColor" stroke-width="2" stroke-linecap="round" stroke-linejoin="round"> <path d="M9 14c0 1.657 2.686 3 6 3s6 -1.343 6 -3s-2.686 -3 -6 -3s-6 1.343 -6 3" /> <path d="M9 14v4c0 1.656 2.686 3 6 3s6 -1.344 6 -3v-4" /> <path d="M3 6c0 1.072 1.144 2.062 3 2.598s4.144 .536 6 0c1.856 -.536 3 -1.526 3 -2.598c0 -1.072 -1.144 -2.062 -3 -2.598s-4.144 -.536 -6 0c-1.856 .536 -3 1.526 -3 2.598" /> <path d="M3 6v10c0 .888 .772 1.45 2 2" /> <path d="M3 11c0 .888 .772 1.45 2 2" /></symbol>
<symbol id="credit-card" viewBox="0 0 24 24" fill="none" stroke="currentColor" stroke-width="2" stroke-linecap="round" stroke-linejoin="round"> <path d="M3 8a3 3 0 0 1 3 -3h12a3 3 0 0 1 3 3v8a3 3 0 0 1 -3 3h-12a3 3 0 0 1 -3 -3l0 -8" /> <path d="M3 10l18 0" /> <path d="M7 15l.01 0" /> <path d="M11 15l2 0" /></symbol>
<symbol id="device-mobile" viewBox="0 0 24 24" fill="none" stroke="currentColor" stroke-width="2" stroke-linecap="round" stroke-linejoin="round"> <path d="M6 5a2 2 0 0 1 2 -2h8a2 2 0 0 1 2 2v14a2 2 0 0 1 -2 2h-8a2 2 0 0 1 -2 -2v-14" /> <path d="M11 4h2" /> <path d="M12 17v.01" /></symbol>
<symbol id="download" viewBox="0 0 24 24" fill="none" stroke="currentColor" stroke-width="2" stroke-linecap="round" stroke-linejoin="round"> <path d="M4 17v2a2 2 0 0 0 2 2h12a2 2 0 0 0 2 -2v-2" /> <path d="M7 11l5 5l5 -5" /> <path d="M12 4l0 12" /></symbol>
<symbol id="file-check" viewBox="0 0 24 24" fill="none" stroke="currentColor" stroke-width="2" stroke-linecap="round" stroke-linejoin="round"> <path d="M14 3v4a1 1 0 0 0 1 1h4" /> <path d="M17 21h-10a2 2 0 0 1 -2 -2v-14a2 2 0 0 1 2 -2h7l5 5v11a2 2 0 0 1 -2 2" /> <path d="M9 15l2 2l4 -4" /></symbol>
<symbol id="file-invoice" viewBox="0 0 24 24" fill="none" stroke="currentColor" stroke-width="2" stroke-linecap="round" stroke-linejoin="round"> <path d="M14 3v4a1 1 0 0 0 1 1h4" /> <path d="M17 21h-10a2 2 0 0 1 -2 -2v-14a2 2 0 0 1 2 -2h7l5 5v11a2 2 0 0 1 -2 2" /> <path d="M9 7l1 0" /> <path d="M9 13l6 0" /> <path d="M13 17l2 0" /></symbol>
<symbol id="file-text" viewBox="0 0 24 24" fill="none" stroke="currentColor" stroke-width="2" stroke-linecap="round" stroke-linejoin="round"> <path d="M14 3v4a1 1 0 0 0 1 1h4" /> <path d="M17 21h-10a2 2 0 0 1 -2 -2v-14a2 2 0 0 1 2 -2h7l5 5v11a2 2 0 0 1 -2 2" /> <path d="M9 9l1 0" /> <path d="M9 13l6 0" /> <path d="M9 17l6 0" /></symbol>
<symbol id="fingerprint" viewBox="0 0 24 24" fill="none" stroke="currentColor" stroke-width="2" stroke-linecap="round" stroke-linejoin="round"> <path d="M18.9 7a8 8 0 0 1 1.1 5v1a6 6 0 0 0 .8 3" /> <path d="M8 11a4 4 0 0 1 8 0v1a10 10 0 0 0 2 6" /> <path d="M12 11v2a14 14 0 0 0 2.5 8" /> <path d="M8 15a18 18 0 0 0 1.8 6" /> <path d="M4.9 19a22 22 0 0 1 -.9 -7v-1a8 8 0 0 1 12 -6.95" /></symbol>
<symbol id="folder-x" viewBox="0 0 24 24" fill="none" stroke="currentColor" stroke-width="2" stroke-linecap="round" stroke-linejoin="round"> <path d="M13.5 19h-8.5a2 2 0 0 1 -2 -2v-11a2 2 0 0 1 2 -2h4l3 3h7a2 2 0 0 1 2 2v4" /> <path d="M22 22l-5 -5" /> <path d="M17 22l5 -5" /></symbol>
<symbol id="headset" viewBox="0 0 24 24" fill="none" stroke="currentColor" stroke-width="2" stroke-linecap="round" stroke-linejoin="round"> <path d="M4 14v-3a8 8 0 1 1 16 0v3" /> <path d="M18 19c0 1.657 -2.686 3 -6 3" /> <path d="M4 14a2 2 0 0 1 2 -2h1a2 2 0 0 1 2 2v3a2 2 0 0 1 -2 2h-1a2 2 0 0 1 -2 -2v-3" /> <path d="M15 14a2 2 0 0 1 2 -2h1a2 2 0 0 1 2 2v3a2 2 0 0 1 -2 2h-1a2 2 0 0 1 -2 -2v-3" /></symbol>
<symbol id="history" viewBox="0 0 24 24" fill="none" stroke="currentColor" stroke-width="2" stroke-linecap="round" stroke-linejoin="round"> <path d="M12 8l0 4l2 2" /> <path d="M3.05 11a9 9 0 1 1 .5 4m-.5 5v-5h5" /></symbol>
<symbol id="key" viewBox="0 0 24 24" fill="none" stroke="currentColor" stroke-width="2" stroke-linecap="round" stroke-linejoin="round"> <path d="M16.555 3.843l3.602 3.602a2.877 2.877 0 0 1 0 4.069l-2.643 2.643a2.877 2.877 0 0 1 -4.069 0l-.301 -.301l-6.558 6.558a2 2 0 0 1 -1.239 .578l-.175 .008h-1.172a1 1 0 0 1 -.993 -.883l-.007 -.117v-1.172a2 2 0 0 1 .467 -1.284l.119 -.13l.414 -.414h2v-2h2v-2l2.144 -2.144l-.301 -.301a2.877 2.877 0 0 1 0 -4.069l2.643 -2.643a2.877 2.877 0 0 1 4.069 0" /> <path d="M15 9h.01" /></symbol>
<symbol id="layout-columns" viewBox="0 0 24 24" fill="none" stroke="currentColor" stroke-width="2" stroke-linecap="round" stroke-linejoin="round"> <path d="M4 6a2 2 0 0 1 2 -2h12a2 2 0 0 1 2 2v12a2 2 0 0 1 -2 2h-12a2 2 0 0 1 -2 -2l0 -12" /> <path d="M12 4l0 16" /></symbol>
<symbol id="layout-dashboard" viewBox="0 0 24 24" fill="none" stroke="currentColor" stroke-width="2" stroke-linecap="round" stroke-linejoin="round"> <path d="M5 4h4a1 1 0 0 1 1 1v6a1 1 0 0 1 -1 1h-4a1 1 0 0 1 -1 -1v-6a1 1 0 0 1 1 -1" /> <path d="M5 16h4a1 1 0 0 1 1 1v2a1 1 0 0 1 -1 1h-4a1 1 0 0 1 -1 -1v-2a1 1 0 0 1 1 -1" /> <path d="M15 12h4a1 1 0 0 1 1 1v6a1 1 0 0 1 -1 1h-4a1 1 0 0 1 -1 -1v-6a1 1 0 0 1 1 -1" /> <path d="M15 4h4a1 1 0 0 1 1 1v2a1 1 0 0 1 -1 1h-4a1 1 0 0 1 -1 -1v-2a1 1 0 0 1 1 -1" /></symbol>
<symbol id="link" viewBox="0 0 24 24" fill="none" stroke="currentColor" stroke-width="2" stroke-linecap="round" stroke-linejoin="round"> <path d="M9 15l6 -6" /> <path d="M11 6l.463 -.536a5 5 0 0 1 7.071 7.072l-.534 .464" /> <path d="M13 18l-.397 .534a5.068 5.068 0 0 1 -7.127 0a4.972 4.972 0 0 1 0 -7.071l.524 -.463" /></symbol>
<symbol id="list-check" viewBox="0 0 24 24" fill="none" stroke="currentColor" stroke-width="2" stroke-linecap="round" stroke-linejoin="round"> <path d="M3.5 5.5l1.5 1.5l2.5 -2.5" /> <path d="M3.5 11.5l1.5 1.5l2.5 -2.5" /> <path d="M3.5 17.5l1.5 1.5l2.5 -2.5" /> <path d="M11 6l9 0" /> <path d="M11 12l9 0" /> <path d="M11 18l9 0" /></symbol>
<symbol id="lock" viewBox="0 0 24 24" fill="none" stroke="currentColor" stroke-width="2" stroke-linecap="round" stroke-linejoin="round"> <path d="M5 13a2 2 0 0 1 2 -2h10a2 2 0 0 1 2 2v6a2 2 0 0 1 -2 2h-10a2 2 0 0 1 -2 -2v-6" /> <path d="M11 16a1 1 0 1 0 2 0a1 1 0 0 0 -2 0" /> <path d="M8 11v-4a4 4 0 1 1 8 0v4" /></symbol>
<symbol id="map-pin" viewBox="0 0 24 24" fill="none" stroke="currentColor" stroke-width="2" stroke-linecap="round" stroke-linejoin="round"> <path d="M9 11a3 3 0 1 0 6 0a3 3 0 0 0 -6 0" /> <path d="M17.657 16.657l-4.243 4.243a2 2 0 0 1 -2.827 0l-4.244 -4.243a8 8 0 1 1 11.314 0" /></symbol>
<symbol id="report" viewBox="0 0 24 24" fill="none" stroke="currentColor" stroke-width="2" stroke-linecap="round" stroke-linejoin="round"> <path d="M8 5h-2a2 2 0 0 0 -2 2v12a2 2 0 0 0 2 2h5.697" /> <path d="M18 14v4h4" /> <path d="M18 11v-4a2 2 0 0 0 -2 -2h-2" /> <path d="M8 5a2 2 0 0 1 2 -2h2a2 2 0 0 1 2 2a2 2 0 0 1 -2 2h-2a2 2 0 0 1 -2 -2" /> <path d="M14 18a4 4 0 1 0 8 0a4 4 0 1 0 -8 0" /> <path d="M8 11h4" /> <path d="M8 15h3" /></symbol>
<symbol id="server" viewBox="0 0 24 24" fill="none" stroke="currentColor" stroke-width="2" stroke-linecap="round" stroke-linejoin="round"> <path d="M3 7a3 3 0 0 1 3 -3h12a3 3 0 0 1 3 3v2a3 3 0 0 1 -3 3h-12a3 3 0 0 1 -3 -3" /> <path d="M3 15a3 3 0 0 1 3 -3h12a3 3 0 0 1 3 3v2a3 3 0 0 1 -3 3h-12a3 3 0 0 1 -3 -3l0 -2" /> <path d="M7 8l0 .01" /> <path d="M7 16l0 .01" /></symbol>
<symbol id="shield-check" viewBox="0 0 24 24" fill="none" stroke="currentColor" stroke-width="2" stroke-linecap="round" stroke-linejoin="round"> <path d="M11.46 20.846a12 12 0 0 1 -7.96 -14.846a12 12 0 0 0 8.5 -3a12 12 0 0 0 8.5 3a12 12 0 0 1 -.09 7.06" /> <path d="M15 19l2 2l4 -4" /></symbol>
<symbol id="shield-lock" viewBox="0 0 24 24" fill="none" stroke="currentColor" stroke-width="2" stroke-linecap="round" stroke-linejoin="round"> <path d="M12 3a12 12 0 0 0 8.5 3a12 12 0 0 1 -8.5 15a12 12 0 0 1 -8.5 -15a12 12 0 0 0 8.5 -3" /> <path d="M11 11a1 1 0 1 0 2 0a1 1 0 1 0 -2 0" /> <path d="M12 12l0 2.5" /></symbol>
<symbol id="tag" viewBox="0 0 24 24" fill="none" stroke="currentColor" stroke-width="2" stroke-linecap="round" stroke-linejoin="round"> <path d="M6.5 7.5a1 1 0 1 0 2 0a1 1 0 1 0 -2 0" /> <path d="M3 6v5.172a2 2 0 0 0 .586 1.414l7.71 7.71a2.41 2.41 0 0 0 3.408 0l5.592 -5.592a2.41 2.41 0 0 0 0 -3.408l-7.71 -7.71a2 2 0 0 0 -1.414 -.586h-5.172a3 3 0 0 0 -3 3" /></symbol>
<symbol id="trending-up" viewBox="0 0 24 24" fill="none" stroke="currentColor" stroke-width="2" stroke-linecap="round" stroke-linejoin="round"> <path d="M3 17l6 -6l4 4l8 -8" /> <path d="M14 7l7 0l0 7" /></symbol>
<symbol id="users" viewBox="0 0 24 24" fill="none" stroke="currentColor" stroke-width="2" stroke-linecap="round" stroke-linejoin="round"> <path d="M5 7a4 4 0 1 0 8 0a4 4 0 1 0 -8 0" /> <path d="M3 21v-2a4 4 0 0 1 4 -4h4a4 4 0 0 1 4 4v2" /> <path d="M16 3.13a4 4 0 0 1 0 7.75" /> <path d="M21 21v-2a4 4 0 0 0 -3 -3.85" /></symbol>
<symbol id="wifi" viewBox="0 0 24 24" fill="none" stroke="currentColor" stroke-width="2" stroke-linecap="round" stroke-linejoin="round"> <path d="M12 18l.01 0" /> <path d="M9.172 15.172a4 4 0 0 1 5.656 0" /> <path d="M6.343 12.343a8 8 0 0 1 11.314 0" /> <path d="M3.515 9.515c4.686 -4.687 12.284 -4.687 17 0" /></symbol>
</svg>
